# xmcd
#
# Track frame offsets: 
#        150
#        19947
#        41506
#        62815
#        85794
#        107680
#        130785
#        148856
#        168839
#        190140
#        214873
#        231588
#        251402
#        268369
#        286342
#        304670
#
# Disc length: 4362 seconds
#
# Revision: 0
# Processed by: cddbd v1.5.2PL0 Copyright (c) Steve Scherf et al.
# Submitted via: ExactAudioCopyFreeDBPlugin 1.0
#
DISCID=eb110810
DTITLE=群星 - 试机20号
DYEAR=2010
DGENRE=Acid
TTITLE0=别亦难
TTITLE1=多情总为无情伤
TTITLE2=鼓浪屿之波
TTITLE3=为你等待
TTITLE4=猜心
TTITLE5=星光背后
TTITLE6=情锁
TTITLE7=和你一起慢慢变老
TTITLE8=青春的记忆
TTITLE9=弯弯的月亮
TTITLE10=垄上行
TTITLE11=你在我心中
TTITLE12=朋友！干杯
TTITLE13=我可以抱你吗
TTITLE14=草原母亲河
TTITLE15=全新英文版之传奇
EXTD=
EXTT0=
EXTT1=
EXTT2=
EXTT3=
EXTT4=
EXTT5=
EXTT6=
EXTT7=
EXTT8=
EXTT9=
EXTT10=
EXTT11=
EXTT12=
EXTT13=
EXTT14=
EXTT15=
PLAYORDER=
